<?xml version="1.0" encoding="UTF-8"?>
<svg xmlns="http://www.w3.org/2000/svg" version="1.1" viewBox="0 0 100 100">
  <defs>
    <style>
      .cls-1 {
        fill: #fff;
        font-size: 15px;
      }

      .cls-1, .cls-2, .cls-3 {
        isolation: isolate;
      }

      .cls-1, .cls-3 {
        font-family: ArialMT, Arial;
      }

      .cls-4 {
        fill: none;
        stroke: #000;
        stroke-miterlimit: 10;
        stroke-width: .2px;
      }

      .cls-3 {
        font-size: 4px;

        text{font-family:Helvetica, Arial, sans-serif;}

        path:over{ fill:pink; }
      
      }

      

    </style>
  </defs>
  <!-- Generator: Adobe Illustrator 28.7.1, SVG Export Plug-In . SVG Version: 1.2.0 Build 142)  -->
  <g>
    <g id="Capa_1">
      <g id="Capa_1-2" data-name="Capa_1">
        <path d="M21.3,59.4v-19.7h2c4.7,0,7.3,3.1,7.3,6.4v9l3,3.2V18c0-3.3,2-5.4,4.7-5.4s4.5,2.1,4.5,5.4v31.5h2.8V11.7c0-3.2,1.8-5.3,4.7-5.3s4.4,2.1,4.4,5.3v37.8h2.8V16.2c0-3.2,2.1-5.2,4.8-5.2s4.4,2.1,4.4,5.3v33.2c0,0,2.7,0,2.7,0v-28.1c0-3.3,2.2-5.3,4.4-5.3s4.9,2.3,4.8,5.1v.2l-.2,41.5c0,20.7-10.9,30.7-27.7,30.7s-29.4-13.2-29.4-34.2Z"/>
        <g class="cls-2">
          <text class="cls-1" transform="translate(33.1 75)"><tspan x="0" y="0">PARE</tspan></text>
        </g>
        <g class="cls-2">
          <text class="cls-3" transform="translate(21.3 32.7)"><tspan x="0" y="0">Mano</tspan></text>
        </g>
      </g>
      <path class="cls-4" d="M26.4,33.3c0,3,2.6,5.4,5.8,5.4"/>
    </g>
  </g>
</svg>