<?xml version="1.0" encoding="UTF-8"?>
<svg xmlns="http://www.w3.org/2000/svg" version="1.1" xmlns:xlink="http://www.w3.org/1999/xlink" viewBox="0 0 566.93 279.04">
  <defs>
    <style>
      .cls-1 {
        letter-spacing: -.02em;
      }

      .cls-2 {
        letter-spacing: -.02em;
      }

      .cls-3 {
        stroke-dasharray: .35 1.74;
      }

      .cls-3, .cls-4, .cls-5, .cls-6 {
        fill: none;
        stroke-miterlimit: 10;
      }

      .cls-3, .cls-5 {
        stroke-linecap: round;
        stroke-width: .58px;
      }

      .cls-3, .cls-5, .cls-6 {
        stroke: #1d1d1b;
      }

      .cls-3, .cls-7 {
        mix-blend-mode: multiply;
      }

      .cls-8, .cls-9 {
        fill: #1d1d1b;
      }

      .cls-10 {
        fill: #fff;
      }

      .cls-11 {
        fill: #646363;
      }

      .cls-11, .cls-9 {
        font-family: DuplicateSans-Regular, 'Duplicate Sans';
        font-size: 9.29px;
      }

      .cls-12 {
        isolation: isolate;
      }

      .cls-4 {
        stroke: #fff;
        stroke-width: 2.52px;
      }

      .cls-13 {
        letter-spacing: 0em;
      }

      .cls-14 {
        letter-spacing: 0em;
      }

      .cls-15 {
        letter-spacing: 0em;
      }

      .cls-16 {
        letter-spacing: 0em;
      }

      .cls-6 {
        stroke-width: .63px;
      }
    </style>
  </defs>
  <!-- Generator: Adobe Illustrator 28.7.1, SVG Export Plug-In . SVG Version: 1.2.0 Build 142)  -->
  <g class="cls-12">
    <g id="Capa_1">
      <g id="paraguasgrande5sep2024024.psd">
         <image id="paraguasgrande5sep2024024" width="2513" height="1278" transform="translate(-12.04 -19.79) scale(.24)" href="img/paraguas.png"/>
      </g>
      <g>
        <g>
          <g>
            <line class="cls-3" x1="225.34" y1="20.17" x2="225.34" y2="41.97"/>
            <line class="cls-3" x1="29.2" y1="83.11" x2="29.2" y2="104.91"/>
          </g>
          <g>
            <g class="cls-7">
              <g>
                <line class="cls-5" x1="221.8" y1="32.29" x2="35.07" y2="93.48"/>
                <polygon class="cls-8" points="219.4 31.27 221.57 32.37 220.47 34.54 221.86 34.09 222.96 31.91 220.79 30.81 219.4 31.27"/>
                <polygon class="cls-8" points="36.4 91.23 35.29 93.41 37.47 94.51 36.08 94.96 33.91 93.86 35.01 91.69 36.4 91.23"/>
              </g>
            </g>
            <g>
              <rect class="cls-10" x="107.65" y="59.78" width="22.28" height="12.54"/>
              <g>
                <text class="cls-11" transform="translate(109.44 69.16)"><tspan class="cls-16" x="0" y="0">5</tspan><tspan class="cls-15" x="4.47" y="0">4</tspan><tspan class="cls-2" x="9.45" y="0"> </tspan><tspan class="cls-13" x="11.07" y="0">m</tspan></text>
                <text class="cls-9" transform="translate(109.44 69.16)"><tspan class="cls-16" x="0" y="0">5</tspan><tspan class="cls-15" x="4.47" y="0">4</tspan><tspan class="cls-2" x="9.45" y="0"> </tspan><tspan class="cls-13" x="11.07" y="0">m</tspan></text>
              </g>
            </g>
          </g>
        </g>
        <g>
          <line class="cls-3" x1="547.75" y1="99.45" x2="547.75" y2="124.54"/>
          <g>
            <g class="cls-7">
              <g>
                <line class="cls-5" x1="543.23" y1="113.47" x2="231.13" y2="31.07"/>
                <polygon class="cls-8" points="541.77 111.3 543 113.41 540.89 114.63 542.3 115.01 544.41 113.78 543.18 111.67 541.77 111.3"/>
                <polygon class="cls-8" points="233.46 29.91 231.36 31.13 232.59 33.24 231.17 32.87 229.94 30.76 232.05 29.53 233.46 29.91"/>
              </g>
            </g>
            <g>
              <rect class="cls-10" x="357.47" y="60.06" width="22.28" height="12.54"/>
              <g>
                <text class="cls-11" transform="translate(359.42 69.45)"><tspan class="cls-14" x="0" y="0">8</tspan><tspan x="4.71" y="0">2</tspan><tspan class="cls-1" x="9.14" y="0"> </tspan><tspan x="10.75" y="0">m</tspan></text>
                <text class="cls-9" transform="translate(359.42 69.45)"><tspan class="cls-14" x="0" y="0">8</tspan><tspan x="4.71" y="0">2</tspan><tspan class="cls-1" x="9.14" y="0"> </tspan><tspan x="10.75" y="0">m</tspan></text>
              </g>
            </g>
          </g>
        </g>
      </g>
      <g>
        <g>
          <path class="cls-4" d="M286.97,140.85c-11.42,49.91,15.62,98.68,60.39,108.91"/>
          <path class="cls-10" d="M284.29,140.24c.34-1.48,1.81-2.4,3.29-2.06,1.48.34,2.4,1.81,2.06,3.29-.34,1.48-1.81,2.4-3.29,2.06-1.48-.34-2.4-1.81-2.06-3.29Z"/>
        </g>
        <g>
          <path class="cls-6" d="M286.97,140.85c-11.42,49.91,15.62,98.68,60.39,108.91"/>
          <path class="cls-8" d="M285.24,140.45c.22-.96,1.17-1.55,2.13-1.34.96.22,1.55,1.17,1.33,2.13-.22.96-1.17,1.55-2.13,1.33-.96-.22-1.55-1.17-1.33-2.13Z"/>
        </g>
      </g>
    </g>
  </g>
</svg>
